HIERARCHY
ROOT hip
{
	OFFSET 0.000000 0.000000 0.000000 
	CHANNELS 6 Xposition Yposition Zposition Xrotation Zrotation Yrotation
	JOINT abdomen
	{
		OFFSET 0.000000 3.402643 0.000000 
		CHANNELS 3 Xrotation Zrotation Yrotation
		JOINT chest
		{
			OFFSET 0.000000 8.438565 -0.680529 
			CHANNELS 3 Xrotation Zrotation Yrotation
			JOINT neck
			{
				OFFSET 0.000000 10.207942 -0.272212 
				CHANNELS 3 Xrotation Zrotation Yrotation
				JOINT head
				{
					OFFSET 0.000000 3.130431 0.000000 
					CHANNELS 3 Xrotation Zrotation Yrotation
					End Site
					{
						OFFSET 0.000000 3.130435 0.000000 
					}
				}
			}
			JOINT lCollar
			{
				OFFSET 3.470700 6.669187 -0.816635 
				CHANNELS 3 Yrotation Zrotation Xrotation
				JOINT lShldr
				{
					OFFSET 3.198488 0.000000 0.000000 
					CHANNELS 3 Zrotation Yrotation Xrotation
					JOINT lForeArm
					{
						OFFSET 10.139888 0.000000 0.000000 
						CHANNELS 3 Yrotation Zrotation Xrotation
						JOINT lHand
						{
							OFFSET 8.370511 0.000000 0.000000 
							CHANNELS 3 Zrotation Yrotation Xrotation
							End Site
							{
								OFFSET 4.083176 0.000000 0.000000 
							}
						}
					}
				}
			}
			JOINT rCollar
			{
				OFFSET -3.470700 6.669187 -0.816635 
				CHANNELS 3 Yrotation Zrotation Xrotation
				JOINT rShldr
				{
					OFFSET -3.198488 0.000000 0.000000 
					CHANNELS 3 Zrotation Yrotation Xrotation
					JOINT rForeArm
					{
						OFFSET -10.139888 0.000000 0.000000 
						CHANNELS 3 Yrotation Zrotation Xrotation
						JOINT rHand
						{
							OFFSET -8.370511 0.000000 0.000000 
							CHANNELS 3 Zrotation Yrotation Xrotation
							End Site
							{
								OFFSET -4.083176 0.000000 0.000000 
							}
						}
					}
				}
			}
		}
	}
	JOINT lThigh
	{
		OFFSET 5.308129 -1.633274 1.361059 
		CHANNELS 3 Xrotation Zrotation Yrotation
		JOINT lShin
		{
			OFFSET -2.041588 -20.007561 0.000000 
			CHANNELS 3 Xrotation Zrotation Yrotation
			JOINT lFoot
			{
				OFFSET 0.000000 -19.190928 -1.224953 
				CHANNELS 3 Xrotation Yrotation Zrotation
				End Site
				{
					OFFSET 0.000000 -2.449906 4.627600 
				}
			}
		}
	}
	JOINT rThigh
	{
		OFFSET -5.308129 -1.633274 1.361059 
		CHANNELS 3 Xrotation Zrotation Yrotation
		JOINT rShin
		{
			OFFSET 2.041588 -20.007561 0.000000 
			CHANNELS 3 Xrotation Zrotation Yrotation
			JOINT rFoot
			{
				OFFSET 0.000000 -19.190928 -1.224953 
				CHANNELS 3 Xrotation Yrotation Zrotation
				End Site
				{
					OFFSET 0.000000 -2.449906 4.627600 
				}
			}
		}
	}
}
MOTION
Frames: 20
Frame Time: 0.033333
-2.885024 49.557697 0.114000 -3.665357 -1.901447 -3.136602 0.000000 0.000000 0.000000 -7.459379 5.148753 7.697996 44.723267 -4.443126 -0.587959 -23.891964 0.573697 5.312819 -13.158665 -1.376153 24.946177 -82.764336 17.541656 -6.268490 -56.572334 6.888979 69.475677 -16.739876 -9.288301 -55.887680 -3.791189 1.493721 24.850016 61.140076 -1.873029 67.169785 24.781071 -38.296391 19.075678 39.116398 1.383387 -81.259827 -3.222912 10.854395 20.786745 34.589813 8.851559 0.605196 1.841598 -11.992762 10.766068 14.262147 8.883718 3.510899 5.668360 -1.181021 -0.622342 17.864540 -5.622416 10.865880 
-2.999802 49.572807 0.134728 -3.986691 -1.900831 -3.459014 0.000000 0.000000 0.000000 -7.192352 4.917053 7.645907 44.862583 -4.618891 -0.597701 -23.994417 0.690009 5.635179 -12.919140 -1.354787 24.940498 -82.793304 17.563999 -6.244734 -56.658012 7.720521 70.497704 -16.819229 -9.812731 -55.661522 -3.585779 1.492461 24.844334 61.271797 -1.834597 67.243805 24.799738 -38.425663 19.114571 39.340057 1.917250 -81.243698 -2.744812 12.592221 21.491171 34.394489 8.334468 0.533358 1.840851 -10.918209 11.802071 14.679846 9.038825 3.546205 5.624365 -1.258084 -0.684493 17.969515 -5.372005 10.642450 
-3.076224 49.579304 0.142925 -4.079614 -1.637571 -3.497734 0.000000 0.000000 0.000000 -7.179232 4.424534 7.532460 44.989944 -4.657951 -0.597701 -24.069054 0.709289 5.762243 -12.911428 -1.261108 24.972740 -82.967789 17.415192 -6.103724 -56.412128 8.699374 71.153053 -16.857908 -10.232903 -55.497601 -3.541510 1.512952 24.845491 61.268169 -1.893388 67.246613 24.916077 -38.478306 19.174980 39.351452 2.464023 -81.200523 -2.628009 13.647614 21.905958 34.117695 8.219043 0.509402 2.526548 -10.621477 10.976161 14.764974 8.847364 3.482442 5.650112 -1.220328 -0.624064 18.041742 -5.458099 10.644785 
-3.147928 49.592445 0.151046 -4.230783 -1.374289 -3.565534 0.000000 0.000000 0.000000 -7.107068 3.989763 7.430737 45.128391 -4.745829 -0.608241 -24.152617 0.738297 5.869659 -12.854539 -1.243120 24.968988 -83.061920 17.285614 -6.028954 -56.136784 9.558536 71.727966 -16.878183 -10.541162 -55.381458 -3.435531 1.561547 24.858194 61.187408 -1.978229 67.213737 25.043003 -38.560513 19.296022 39.361183 2.932089 -81.158249 -2.412919 14.741595 22.381731 33.831348 8.101316 0.485062 3.108552 -10.465052 10.190813 14.899807 8.660927 3.438105 5.670683 -1.171713 -0.631705 18.120153 -5.497582 10.578415 
-3.211957 49.616749 0.158956 -4.447479 -1.149965 -3.682466 0.000000 0.000000 0.000000 -6.924471 3.632109 7.348868 45.258163 -4.931355 -0.617994 -24.228230 0.757672 5.908847 -12.732585 -1.358186 24.928675 -82.996155 17.172491 -6.071926 -55.826286 10.243401 72.160706 -16.913061 -10.607471 -55.342422 -3.213567 1.685884 24.864817 61.022877 -2.134341 67.128929 25.190823 -38.662197 19.579515 39.353077 3.290538 -81.124016 -1.994040 15.911311 22.893620 33.544239 7.993230 0.492075 3.413600 -10.657615 9.383348 15.088064 8.476789 3.382905 5.707945 -1.132852 -0.619682 18.212957 -5.491868 10.521932 
-3.262343 49.643902 0.170397 -4.628714 -0.906299 -3.711554 0.000000 0.000000 0.000000 -6.827512 3.284007 7.267935 45.398201 -5.077812 -0.637460 -24.280321 0.728557 5.889187 -12.699565 -1.538388 24.887829 -82.859047 17.116020 -6.177722 -55.506863 10.798480 72.386406 -16.937731 -10.599266 -55.324787 -3.052307 1.825174 24.870134 60.766834 -2.352507 66.997841 25.313719 -38.632675 19.721331 39.412678 3.360321 -81.129456 -1.672204 17.062189 23.424561 33.338364 7.876082 0.471544 3.186631 -10.503879 9.537493 15.232789 8.241449 3.308352 5.759265 -1.074300 -0.626050 18.270872 -5.491163 10.512142 
-3.301721 49.673313 0.184655 -4.754894 -0.623717 -3.672188 0.000000 0.000000 0.000000 -6.768630 2.935775 7.187271 45.555653 -5.185227 -0.637463 -24.325438 0.680093 5.801298 -12.737572 -1.751388 24.839907 -82.680290 17.118818 -6.314855 -55.196495 11.254334 72.465530 -16.971180 -10.527361 -55.331635 -2.938167 1.996466 24.875385 60.463478 -2.618583 66.839470 25.400200 -38.514389 19.737074 39.524242 3.210734 -81.154991 -1.436725 18.228422 23.945038 33.171444 7.768718 0.474985 2.581831 -10.168322 10.473475 15.335984 7.946592 3.226990 5.817260 -0.957012 -0.571678 18.274094 -5.629670 10.563640 
-3.338333 49.710949 0.199590 -4.902973 -0.438517 -3.740349 0.000000 0.000000 0.000000 -6.676561 2.751922 7.147275 45.716038 -5.390273 -0.657825 -24.366745 0.670504 5.693768 -12.598315 -2.086029 24.757549 -82.292694 17.141676 -6.586143 -54.826027 11.395967 72.271072 -17.003288 -10.251239 -55.425117 -2.706114 2.168595 24.882406 60.167568 -2.835511 66.679642 25.359795 -38.445187 19.890152 39.802963 3.187285 -81.190613 -0.979416 19.211796 24.435509 32.735489 7.691562 0.450188 2.871602 -10.185837 10.421224 15.476672 7.782551 3.185038 5.845182 -0.907989 -0.579007 18.324120 -5.574534 10.525949 
-3.374027 49.751453 0.214751 -5.078652 -0.282565 -3.847706 0.000000 0.000000 0.000000 -6.566763 2.626123 7.117083 45.878109 -5.644128 -0.687003 -24.407406 0.670662 5.557059 -12.396411 -2.464816 24.671541 -81.846237 17.185165 -6.910672 -54.439304 11.438340 72.012749 -17.025375 -9.892920 -55.563957 -2.448136 2.331234 24.888546 59.883007 -3.050342 66.521866 25.273869 -38.405773 20.086727 40.145107 3.187531 -81.225784 -0.431957 20.142326 24.902485 32.271412 7.614757 0.472563 3.431494 -10.313166 10.116479 15.632042 7.635639 3.109474 5.884644 -0.908174 -0.577810 18.356709 -5.485882 10.485019 
-3.377161 49.773266 0.221797 -4.952433 0.019491 -3.701171 0.000000 0.000000 0.000000 -6.787424 2.364783 7.056835 45.986355 -5.712482 -0.687975 -24.385172 0.622286 5.342117 -12.353959 -2.691777 24.622696 -81.479980 17.221825 -7.166780 -54.067516 11.385540 71.810867 -16.836454 -9.661004 -55.699684 -2.414964 2.421971 24.891119 59.619812 -3.226753 66.382721 25.173252 -38.205143 20.156647 40.397343 3.119092 -81.259445 -0.332843 20.809099 25.231129 31.681580 7.467625 0.474316 3.631131 -9.973767 10.834812 15.466149 7.323178 3.023892 5.899843 -0.858785 -0.526908 18.354689 -5.644860 10.502299 
-3.377314 49.791954 0.227262 -4.784947 0.311902 -3.544923 0.000000 0.000000 0.000000 -7.045049 2.113022 7.006890 46.076061 -5.780825 -0.697702 -24.363445 0.564140 5.127280 -12.320036 -2.901054 24.574234 -81.134598 17.258385 -7.421708 -53.711182 11.304706 71.621857 -16.620377 -9.425454 -55.844681 -2.426059 2.492188 24.892637 59.371571 -3.380450 66.245926 25.073278 -38.010723 20.260204 40.624290 3.021453 -81.298714 -0.254894 21.464022 25.557804 31.072248 7.320520 0.485708 3.840040 -9.668031 11.521057 15.270719 7.020395 2.946958 5.923612 -0.830067 -0.525144 18.345297 -5.763611 10.517557 
-3.375198 49.797428 0.226360 -4.540574 0.477645 -3.457074 0.000000 0.000000 0.000000 -7.325990 2.054908 6.996773 46.017300 -5.849192 -0.687996 -24.318127 0.544842 4.941647 -12.251400 -3.000102 24.540495 -80.848846 17.289879 -7.621927 -53.487858 11.100660 71.620537 -16.388889 -9.119403 -56.006645 -2.467454 2.419169 24.890436 59.182503 -3.467180 66.127304 25.051470 -37.858006 20.816313 40.782372 2.727044 -81.334076 -0.159281 22.250282 25.967781 30.242064 7.310916 0.528568 4.392559 -9.920047 11.140311 14.986177 6.883290 2.910967 5.973251 -0.830170 -0.533367 18.356867 -5.834885 10.414265 
-3.367982 49.803886 0.227325 -4.315464 0.653186 -3.339960 0.000000 0.000000 0.000000 -7.588905 1.987141 6.976908 45.951427 -5.888227 -0.707430 -24.282993 0.515774 4.785401 -12.256263 -3.105054 24.518888 -80.572250 17.351326 -7.823229 -53.286644 10.871514 71.549896 -16.132481 -8.806467 -56.168079 -2.535185 2.355229 24.898102 58.988750 -3.524302 66.015503 25.032488 -37.611713 21.141232 40.802757 2.430384 -81.359764 -0.081391 22.893358 26.306028 29.521912 7.340973 0.565852 4.743889 -10.014927 11.095339 14.729018 6.735556 2.867743 5.962913 -0.899496 -0.526298 18.332964 -5.947126 10.391357 
-3.348718 49.812592 0.232859 -4.128496 0.848338 -3.135000 0.000000 0.000000 0.000000 -7.806497 1.890287 6.957055 45.832874 -5.858944 -0.697712 -24.315813 0.486668 4.658450 -12.394468 -3.178711 24.505020 -80.330193 17.523523 -8.004461 -53.143288 10.593236 71.308060 -15.849751 -8.489167 -56.333710 -2.689774 2.294306 24.895157 58.766735 -3.577967 65.872772 25.028967 -37.179512 20.955090 40.540581 2.149739 -81.364197 -0.158260 23.169405 26.444267 29.019779 7.466995 0.620662 4.605026 -9.696603 11.670566 14.569135 6.542582 2.808863 5.893041 -0.917799 -0.577901 18.331686 -6.078788 10.246303 
-3.327670 49.819435 0.236844 -3.927369 0.975260 -2.959387 0.000000 0.000000 0.000000 -8.015443 1.861244 6.947290 45.713860 -5.790602 -0.687988 -24.358662 0.447784 4.580243 -12.553224 -3.231840 24.499014 -80.128540 17.677443 -8.171981 -53.006847 10.307008 71.026672 -15.561869 -8.325689 -56.465794 -2.862062 2.225185 24.891674 58.536327 -3.622745 65.735580 25.091879 -36.769341 20.845795 40.232185 1.885864 -81.362625 -0.209267 23.429085 26.575626 28.484165 7.555465 0.664986 4.729597 -9.488549 11.859355 14.376464 6.442111 2.784815 5.827199 -1.015715 -0.573317 18.342554 -6.236970 10.164898 
-3.304717 49.824276 0.239240 -3.713209 1.043672 -2.803159 0.000000 0.000000 0.000000 -8.235001 1.899981 6.957055 45.595612 -5.702718 -0.687003 -24.430557 0.408880 4.521648 -12.715253 -3.254273 24.492655 -79.965698 17.828445 -8.297821 -52.880726 10.019238 70.664925 -15.279128 -8.295259 -56.557297 -3.042569 2.173793 24.887943 58.298901 -3.663055 65.589256 25.203756 -36.402760 20.768179 39.901600 1.646048 -81.334885 -0.199285 23.673414 26.704826 27.990938 7.586030 0.677667 5.082266 -9.304607 11.573336 14.207365 6.434958 2.770247 5.745538 -1.141929 -0.609169 18.344984 -6.323792 10.028787 
-3.270432 49.822422 0.238311 -3.438879 1.102373 -2.607878 0.000000 0.000000 0.000000 -8.509248 1.967754 6.976907 45.474873 -5.566031 -0.667562 -24.446707 0.331016 4.482517 -12.944110 -3.134376 24.520828 -79.961502 17.919893 -8.312114 -52.672161 9.777350 70.149628 -15.011955 -8.218786 -56.656807 -3.286278 2.050057 24.881468 58.193142 -3.678848 65.521385 25.219666 -36.195137 20.728893 39.703903 1.404683 -81.346634 -0.345441 23.878510 26.806152 27.579535 7.575996 0.712076 5.164581 -8.803379 12.163219 13.950732 6.424180 2.774067 5.680969 -1.269588 -0.663825 18.332041 -6.498148 9.874652 
-3.230628 49.817429 0.235691 -3.133854 1.151347 -2.383116 0.000000 0.000000 0.000000 -8.801790 2.045215 6.996772 45.345280 -5.419568 -0.657829 -24.443262 0.253146 4.433680 -13.221617 -2.934460 24.564789 -80.036934 17.962940 -8.244866 -52.444038 9.557446 69.533745 -14.742163 -8.119970 -56.760593 -3.583087 1.901742 24.872833 58.164021 -3.700238 65.505424 25.178974 -36.069649 20.706499 39.569820 1.180659 -81.350563 -0.538588 24.060343 26.887526 27.207088 7.526886 0.709692 5.046622 -8.086415 13.219211 13.650323 6.415435 2.762162 5.570815 -1.396815 -0.670802 18.314777 -6.714479 9.681765 
-3.182012 49.821983 0.238052 -3.003521 1.171029 -2.178077 0.000000 0.000000 0.000000 -8.906343 2.142055 7.016649 45.264011 -5.224277 -0.648078 -24.429205 0.185006 4.375041 -13.477611 -2.735819 24.610287 -80.214661 17.917007 -8.114458 -52.246201 9.455902 69.076660 -14.659152 -7.904992 -56.854324 -3.808137 1.829262 24.876623 58.054779 -3.736655 65.437088 25.201059 -35.935101 20.495615 39.381943 0.931449 -81.355995 -0.638350 24.025902 26.849501 27.083620 7.498519 0.728566 5.004351 -7.763740 13.705874 13.554471 6.406311 2.777220 5.504391 -1.503473 -0.714796 18.254107 -6.897082 9.445569 
-3.131948 49.828632 0.241450 -2.901872 1.171174 -1.982806 0.000000 0.000000 0.000000 -8.979136 2.258270 7.036922 45.211357 -5.038762 -0.627731 -24.415745 0.107117 4.316417 -13.724641 -2.535916 24.666836 -80.422363 17.863270 -7.966928 -52.059723 9.378844 68.664520 -14.608798 -7.677541 -56.933498 -4.041074 1.775139 24.870567 57.952728 -3.769908 65.373978 25.241667 -35.789787 20.256264 39.184536 0.683617 -81.360260 -0.714088 23.972351 26.813255 26.963993 7.488086 0.713352 4.973043 -7.498733 14.029263 13.474953 6.366586 2.769610 5.457529 -1.562703 -0.717690 18.200159 -7.095296 9.235056 
